<svg xmlns="http://www.w3.org/2000/svg" viewBox="0 0 454.46 137.09"><defs><style>.cls-1{fill:#003671;}</style></defs><g id="Ebene_2" data-name="Ebene 2"><g id="Ebene_1-2" data-name="Ebene 1"><path class="cls-1" d="M35.46,57.56Q30.53,60.92,21,60.91H6.48V11.09H19.63c1.86,0,3.44,0,4.74.11a25.35,25.35,0,0,1,3.41.39,14.28,14.28,0,0,1,2.62.76,14.83,14.83,0,0,1,2.3,1.19q5.61,3.6,5.6,9.79a10.77,10.77,0,0,1-2.17,6.87,12.17,12.17,0,0,1-6.32,4A16.89,16.89,0,0,1,35,36.36a12.24,12.24,0,0,1,3.24,3.06A11.38,11.38,0,0,1,39.89,43a15,15,0,0,1,.5,3.78Q40.39,54.21,35.46,57.56ZM28.55,20.83a5.78,5.78,0,0,0-2.9-2.33,9.3,9.3,0,0,0-1.83-.43A22.86,22.86,0,0,0,21,17.93H14.62V31.46h7a15.22,15.22,0,0,0,3.58-.32,5.45,5.45,0,0,0,2.51-1.54A6.34,6.34,0,0,0,29.27,27a8.69,8.69,0,0,0,.39-2.36A6.8,6.8,0,0,0,28.55,20.83ZM30,41.33a5.74,5.74,0,0,0-3.37-2.59,7.63,7.63,0,0,0-1.87-.36c-.62-.05-1.52-.08-2.72-.08H14.76V54.07h7.46q4.73,0,6.88-2.3A8.14,8.14,0,0,0,31.25,46,8.47,8.47,0,0,0,30,41.33Z" transform="translate(-6.48 -11.09)"/><path class="cls-1" d="M51.19,22H75.67l-1.15,6.48H59.25V37.3H72v6.48H59.33V54.07H76.25v6.84H51.19Z" transform="translate(-6.48 -11.09)"/><path class="cls-1" d="M111.82,54.83a12.7,12.7,0,0,1-4.09,4,18,18,0,0,1-5.6,2.23,27.91,27.91,0,0,1-6.1.69,31.75,31.75,0,0,1-14.37-3.46l3-6.19a31.46,31.46,0,0,0,5.83,2.27,23.3,23.3,0,0,0,6,.75A20.33,20.33,0,0,0,99,55a9,9,0,0,0,2.59-.72,5.4,5.4,0,0,0,2-1.51,4.11,4.11,0,0,0-.69-5.58,12.56,12.56,0,0,0-4.71-2.09L93,43.7A15.57,15.57,0,0,1,86,40a9.47,9.47,0,0,1-2.81-7.2A10.36,10.36,0,0,1,84.35,28a11.3,11.3,0,0,1,3.12-3.78,15.45,15.45,0,0,1,4.78-2.48,19.86,19.86,0,0,1,6.15-.9,30.42,30.42,0,0,1,7.8,1,20.73,20.73,0,0,1,6.59,2.92L109,30.46a20.69,20.69,0,0,0-10.3-3A8.45,8.45,0,0,0,94,28.58a3.68,3.68,0,0,0-1.72,3.24,3.43,3.43,0,0,0,1.11,2.67,9.78,9.78,0,0,0,4.11,1.73l5.15,1.29A28.92,28.92,0,0,1,106.78,39a12.74,12.74,0,0,1,3.44,2.2,9.83,9.83,0,0,1,2.32,3.2,10.48,10.48,0,0,1,.86,4.39A11.17,11.17,0,0,1,111.82,54.83Z" transform="translate(-6.48 -11.09)"/><path class="cls-1" d="M153.47,51.19a13.86,13.86,0,0,1-.58,2.77,7.58,7.58,0,0,1-1,2.09,11.65,11.65,0,0,1-1.59,1.77,14.29,14.29,0,0,1-4.65,2.73,20.45,20.45,0,0,1-7.18,1.08,21.08,21.08,0,0,1-8.81-1.58,11.9,11.9,0,0,1-5.05-4.11,10.6,10.6,0,0,1-1.37-3.45,25.7,25.7,0,0,1-.36-4.83V22h8.28V46.44a32.83,32.83,0,0,0,.14,3.31,7.09,7.09,0,0,0,.51,2.09C132.85,54,135,55,138.27,55q4,0,5.59-2a10.14,10.14,0,0,0,.65-1,4.79,4.79,0,0,0,.46-1.22,12.51,12.51,0,0,0,.29-1.69,22.89,22.89,0,0,0,.11-2.41V22h8.28V47.38A34.39,34.39,0,0,1,153.47,51.19Z" transform="translate(-6.48 -11.09)"/><path class="cls-1" d="M182.37,61.56a24.2,24.2,0,0,1-7.45-1.08A14.8,14.8,0,0,1,169.08,57q-5.79-5.61-5.79-14.76a22.82,22.82,0,0,1,3.22-12.38,17.3,17.3,0,0,1,6.7-6.37,19.31,19.31,0,0,1,9.38-2.27,22.35,22.35,0,0,1,6.08.83,13.89,13.89,0,0,1,4.86,2.26l-3.81,5.26a13.18,13.18,0,0,0-7-2.09,9.78,9.78,0,0,0-4.68,1.16,10.26,10.26,0,0,0-3.52,3q-2.24,3.1-2.24,9.45a31.71,31.71,0,0,0,.54,6.61,9.76,9.76,0,0,0,2.06,4.22A10.13,10.13,0,0,0,183,55.44a13.5,13.5,0,0,0,3.89-.54,14.42,14.42,0,0,0,3.67-1.76l3.82,4.79Q189.65,61.56,182.37,61.56Z" transform="translate(-6.48 -11.09)"/><path class="cls-1" d="M223.92,43.56H210.53V60.91h-8.14V22h8.14V37.08h13.39V22h8.28V60.91h-8.28Z" transform="translate(-6.48 -11.09)"/><path class="cls-1" d="M245.09,22h24.48l-1.16,6.48H253.15V37.3h12.74v6.48H253.22V54.07h16.92v6.84h-25Z" transform="translate(-6.48 -11.09)"/><path class="cls-1" d="M296.38,54.65c-1.54-2.35-2.71-4.12-3.5-5.29a32,32,0,0,0-2-2.7,8.24,8.24,0,0,0-1.59-1.37,3.92,3.92,0,0,0-2.24-.58v16.2h-7.92V22h13.11a30.12,30.12,0,0,1,6.58.61,11.09,11.09,0,0,1,4.58,2.13,10.79,10.79,0,0,1,4,8.64,10.39,10.39,0,0,1-9.61,10.87,6.63,6.63,0,0,1,1.73,1.87c.63.82,1.41,1.85,2.35,3.1s1.87,2.54,2.78,3.88L310,60.91h-9.75Zm1.91-24.09a4.57,4.57,0,0,0-1.88-1.64,7.72,7.72,0,0,0-2.61-.69,27.55,27.55,0,0,0-2.83-.15h-3.91V39h3.55c1,0,2,0,3-.11a7.87,7.87,0,0,0,2.72-.65,4.59,4.59,0,0,0,1.92-1.65,5.54,5.54,0,0,0,.72-3.06A5.24,5.24,0,0,0,298.29,30.56Z" transform="translate(-6.48 -11.09)"/><path class="cls-1" d="M315.07,37.66h15.77V45H315.07Z" transform="translate(-6.48 -11.09)"/><path class="cls-1" d="M23.72,141.05c-1.54-2.35-2.71-4.12-3.5-5.29a32,32,0,0,0-2-2.7,8.24,8.24,0,0,0-1.59-1.37,3.94,3.94,0,0,0-2.24-.58v16.2H6.48V108.36h13.1a30.16,30.16,0,0,1,6.59.61,11,11,0,0,1,4.57,2.13,10.77,10.77,0,0,1,4,8.64,10.39,10.39,0,0,1-9.61,10.87,6.77,6.77,0,0,1,1.73,1.87c.63.82,1.41,1.85,2.35,3.1s1.86,2.54,2.78,3.88l5.34,7.85H27.62ZM25.63,117a4.53,4.53,0,0,0-1.89-1.64,7.61,7.61,0,0,0-2.6-.69,27.55,27.55,0,0,0-2.83-.15H14.4v10.87H18c1,0,2,0,3-.11a7.71,7.71,0,0,0,2.72-.66,4.55,4.55,0,0,0,1.92-1.64,5.54,5.54,0,0,0,.72-3.06A5.24,5.24,0,0,0,25.63,117Z" transform="translate(-6.48 -11.09)"/><path class="cls-1" d="M45.29,108.36H69.77l-1.15,6.48H53.35v8.86H66.1v6.48H53.42v10.29H70.34v6.84H45.29Z" transform="translate(-6.48 -11.09)"/><path class="cls-1" d="M95.86,147.74a22.09,22.09,0,0,1-8.44-1.44,17.75,17.75,0,0,1-9.81-10.4A24.47,24.47,0,0,1,76.46,128a23.18,23.18,0,0,1,1.94-9.94,17.79,17.79,0,0,1,5.82-6.91,19.05,19.05,0,0,1,11.5-3.39,22,22,0,0,1,13.5,4.32l-4.16,5a20.61,20.61,0,0,0-4.31-2.23,14,14,0,0,0-4.88-.79,10.54,10.54,0,0,0-5.42,1.22,8.61,8.61,0,0,0-3.16,3.24,13.28,13.28,0,0,0-1.47,4.61,39.28,39.28,0,0,0-.36,5.4,26.14,26.14,0,0,0,.51,5.33,11.2,11.2,0,0,0,1.76,4.25A8.88,8.88,0,0,0,91,140.94a13.21,13.21,0,0,0,8,.72,19,19,0,0,0,2.38-.76v-8.85H94.53l-1.15-6.48h16.35v18.78A29.19,29.19,0,0,1,95.86,147.74Z" transform="translate(-6.48 -11.09)"/><path class="cls-1" d="M122,108.36h8.28v39H122Z" transform="translate(-6.48 -11.09)"/><path class="cls-1" d="M169.56,141.23a12.6,12.6,0,0,1-4.09,4,18,18,0,0,1-5.6,2.23,27.91,27.91,0,0,1-6.1.69,31.75,31.75,0,0,1-14.37-3.46l2.95-6.19a31.74,31.74,0,0,0,5.83,2.27,23.37,23.37,0,0,0,6,.75,20.31,20.31,0,0,0,2.55-.18,8.92,8.92,0,0,0,2.59-.72,5.4,5.4,0,0,0,2-1.51,3.8,3.8,0,0,0,.79-2.48,3.87,3.87,0,0,0-1.47-3.1,12.69,12.69,0,0,0-4.72-2.09l-5.18-1.37a15.55,15.55,0,0,1-7-3.74,9.47,9.47,0,0,1-2.81-7.2,10.49,10.49,0,0,1,1.12-4.79,11.21,11.21,0,0,1,3.13-3.78,15.34,15.34,0,0,1,4.78-2.48,19.77,19.77,0,0,1,6.15-.9,30.54,30.54,0,0,1,7.8,1,20.67,20.67,0,0,1,6.58,2.92l-3.82,5.69a20.69,20.69,0,0,0-10.3-3,8.47,8.47,0,0,0-4.72,1.15,3.7,3.7,0,0,0-1.72,3.24,3.43,3.43,0,0,0,1.11,2.67,9.78,9.78,0,0,0,4.11,1.73l5.15,1.29a29.05,29.05,0,0,1,4.19,1.44,12.68,12.68,0,0,1,3.43,2.2,9.69,9.69,0,0,1,2.32,3.2,10.33,10.33,0,0,1,.86,4.39A11.09,11.09,0,0,1,169.56,141.23Z" transform="translate(-6.48 -11.09)"/><path class="cls-1" d="M194.4,114.84v32.47h-8.14V114.84H175.53v-6.48h30.82L205,114.84Z" transform="translate(-6.48 -11.09)"/><path class="cls-1" d="M229,141.05c-1.54-2.35-2.71-4.12-3.5-5.29a32,32,0,0,0-2-2.7,8.24,8.24,0,0,0-1.59-1.37,3.94,3.94,0,0,0-2.24-.58v16.2h-7.92V108.36h13.1a30.16,30.16,0,0,1,6.59.61A11,11,0,0,1,236,111.1a10.77,10.77,0,0,1,4,8.64,10.39,10.39,0,0,1-9.61,10.87,6.63,6.63,0,0,1,1.73,1.87c.63.82,1.41,1.85,2.35,3.1s1.86,2.54,2.78,3.88l5.34,7.85h-9.75ZM230.9,117a4.53,4.53,0,0,0-1.89-1.64,7.61,7.61,0,0,0-2.6-.69,27.55,27.55,0,0,0-2.83-.15h-3.91v10.87h3.55c1,0,2,0,3-.11a7.66,7.66,0,0,0,2.72-.66,4.55,4.55,0,0,0,1.92-1.64,5.54,5.54,0,0,0,.72-3.06A5.24,5.24,0,0,0,230.9,117Z" transform="translate(-6.48 -11.09)"/><path class="cls-1" d="M250.56,108.36h8.28v39h-8.28Z" transform="translate(-6.48 -11.09)"/><path class="cls-1" d="M271.87,108.36h24.48l-1.15,6.48H279.93v8.86h12.75v6.48H280v10.29h16.92v6.84H271.87Z" transform="translate(-6.48 -11.09)"/><path class="cls-1" d="M323.17,141.05c-1.55-2.35-2.71-4.12-3.51-5.29a30,30,0,0,0-2-2.7,8.24,8.24,0,0,0-1.59-1.37,3.9,3.9,0,0,0-2.24-.58v16.2h-7.92V108.36H319a30.22,30.22,0,0,1,6.59.61,11,11,0,0,1,4.57,2.13,10.76,10.76,0,0,1,4,8.64,10.39,10.39,0,0,1-9.61,10.87,6.49,6.49,0,0,1,1.73,1.87c.63.82,1.41,1.85,2.35,3.1s1.87,2.54,2.78,3.88l5.34,7.85h-9.74Zm1.9-24.09a4.51,4.51,0,0,0-1.88-1.64,7.6,7.6,0,0,0-2.61-.69,27.51,27.51,0,0,0-2.82-.15h-3.92v10.87h3.55c1,0,2,0,3.05-.11a7.66,7.66,0,0,0,2.71-.66,4.44,4.44,0,0,0,1.92-1.64,5.54,5.54,0,0,0,.73-3.06A5.24,5.24,0,0,0,325.07,117Z" transform="translate(-6.48 -11.09)"/><path class="cls-1" d="M374.65,137.59a13.86,13.86,0,0,1-.58,2.77,7.32,7.32,0,0,1-1.05,2.09,12.12,12.12,0,0,1-1.58,1.77,14.45,14.45,0,0,1-4.66,2.73A20.45,20.45,0,0,1,359.6,148a21,21,0,0,1-8.8-1.58,11.84,11.84,0,0,1-5.05-4.11,10.41,10.41,0,0,1-1.38-3.45,25.7,25.7,0,0,1-.36-4.83v-25.7h8.28v24.48a29.76,29.76,0,0,0,.15,3.31,6.81,6.81,0,0,0,.5,2.09q1.65,3.16,6.52,3.17,4,0,5.58-2a10.14,10.14,0,0,0,.65-1,4.78,4.78,0,0,0,.47-1.22,14.49,14.49,0,0,0,.28-1.69,22.89,22.89,0,0,0,.11-2.41v-24.7h8.28v25.42A34.39,34.39,0,0,1,374.65,137.59Z" transform="translate(-6.48 -11.09)"/><path class="cls-1" d="M399.52,129.31q-.79-1.44-1.65-3.27c-.58-1.23-1.12-2.39-1.62-3.5s-.93-2-1.26-2.8l-.51-1.16.07,1.3q.07,1.23.15,3.06c.05,1.22.09,2.5.14,3.82s.08,2.48.08,3.49l.28,17.06h-7.84V108.36h9L406,126c.48.91,1,1.93,1.51,3.06s1,2.2,1.45,3.2l1.51,3.53-.15-1.15c-.05-.77-.12-1.72-.21-2.84s-.18-2.32-.25-3.57-.11-2.35-.11-3.31l-.15-16.56h7.71v39h-8.43Z" transform="translate(-6.48 -11.09)"/><path class="cls-1" d="M447.07,147.74a22.09,22.09,0,0,1-8.44-1.44,17.75,17.75,0,0,1-9.81-10.4,24.47,24.47,0,0,1-1.15-7.88,23.18,23.18,0,0,1,1.94-9.94,18,18,0,0,1,5.82-6.91,19.07,19.07,0,0,1,11.5-3.39,22,22,0,0,1,13.5,4.32l-4.16,5a20.61,20.61,0,0,0-4.31-2.23,14,14,0,0,0-4.88-.79,10.56,10.56,0,0,0-5.42,1.22,8.69,8.69,0,0,0-3.16,3.24,13.28,13.28,0,0,0-1.47,4.61,39.28,39.28,0,0,0-.36,5.4,26.14,26.14,0,0,0,.51,5.33,11.2,11.2,0,0,0,1.76,4.25,9,9,0,0,0,3.31,2.84,13.21,13.21,0,0,0,8,.72,18.52,18.52,0,0,0,2.38-.76v-8.85h-6.91l-1.16-6.48h16.35v18.78A29.19,29.19,0,0,1,447.07,147.74Z" transform="translate(-6.48 -11.09)"/></g></g></svg>