<svg xmlns="http://www.w3.org/2000/svg" viewBox="0 0 768.09 138.02"><defs><style>.cls-1{fill:#003671;}</style></defs><g id="Ebene_2" data-name="Ebene 2"><g id="Ebene_1-2" data-name="Ebene 1"><path class="cls-1" d="M25.78,61.7a20.55,20.55,0,0,1-8.86-1.83A20.68,20.68,0,0,1,10,54.5Q4.32,47.66,4.32,36.72q0-9,3.31-15.12a21.14,21.14,0,0,1,7.67-8.42,19.8,19.8,0,0,1,10.69-3,23.18,23.18,0,0,1,6.91,1A15.57,15.57,0,0,1,38.38,14l-3.82,5.44a15,15,0,0,0-4.1-2.12,14,14,0,0,0-4.4-.69,10.8,10.8,0,0,0-5.76,1.55,12.24,12.24,0,0,0-4.17,4.44,18.92,18.92,0,0,0-1.95,5.44,39.06,39.06,0,0,0-.64,7.69A48.16,48.16,0,0,0,14,43.21a18.44,18.44,0,0,0,1.48,4.94A11.38,11.38,0,0,0,20,53.53a12.66,12.66,0,0,0,6.55,1.69,14,14,0,0,0,4.75-.75,15.39,15.39,0,0,0,4.18-2.41l3.88,5.25A21.57,21.57,0,0,1,25.78,61.7Z" transform="translate(-4.32 -10.15)"/><path class="cls-1" d="M83.16,46.66a23.61,23.61,0,0,1-4,8.1,17.65,17.65,0,0,1-6.43,5.14,19.94,19.94,0,0,1-8.63,1.8,20.75,20.75,0,0,1-9.27-1.94,18.77,18.77,0,0,1-6.61-5.36,23.05,23.05,0,0,1-3.95-8.14A38.74,38.74,0,0,1,43,36a36.46,36.46,0,0,1,1.51-10.91A23.47,23.47,0,0,1,48.73,17a17.82,17.82,0,0,1,6.54-5,20.66,20.66,0,0,1,8.49-1.69,20.07,20.07,0,0,1,9.16,2,18.45,18.45,0,0,1,6.51,5.43,23.85,23.85,0,0,1,3.84,8.14,38.92,38.92,0,0,1,1.26,10.15A38.32,38.32,0,0,1,83.16,46.66ZM74.63,28.42a20.4,20.4,0,0,0-1.84-6.25,9.42,9.42,0,0,0-3.53-4,10.41,10.41,0,0,0-5.54-1.36q-6.27,0-8.89,4.88T52.2,35.53q0,9.7,2.7,14.81t9,5.1a10.49,10.49,0,0,0,4.89-1.08A8.91,8.91,0,0,0,72.32,51a17.63,17.63,0,0,0,2.13-5.82,44,44,0,0,0,.72-8.59A56.44,56.44,0,0,0,74.63,28.42Z" transform="translate(-4.32 -10.15)"/><path class="cls-1" d="M103.54,61.13l-16.78-50h9l9,28.22a68.58,68.58,0,0,1,2,7.42l.57,2.59h.22l.58-2.38q.57-2.44,2.44-8.06l9.15-27.79h8.64l-17.14,50Z" transform="translate(-4.32 -10.15)"/><path class="cls-1" d="M134.14,11.09h8.49V60.91h-8.49Z" transform="translate(-4.32 -10.15)"/><path class="cls-1" d="M189.58,46.26a24,24,0,0,1-3.89,7.67,21.21,21.21,0,0,1-3.24,3.35,14.87,14.87,0,0,1-3.75,2.16A19.34,19.34,0,0,1,174,60.59a51.78,51.78,0,0,1-6.09.32H155.59V11.09H166a50.52,50.52,0,0,1,6.3.36,25,25,0,0,1,5.22,1.19,18.86,18.86,0,0,1,4.36,2.16,18.26,18.26,0,0,1,3.7,3.34q5.4,6.27,5.4,18A34.33,34.33,0,0,1,189.58,46.26Zm-8.47-17.93a14.68,14.68,0,0,0-2.56-6.44,10.12,10.12,0,0,0-3.84-3.35,13.3,13.3,0,0,0-5.56-1h-5.28v36.5h5.5q6.65,0,9.5-4.32t2.86-12.81A54,54,0,0,0,181.11,28.33Z" transform="translate(-4.32 -10.15)"/><path class="cls-1" d="M201.81,54.43h7.42V32.81a47.16,47.16,0,0,1-4.53,2.51q-2.23,1.08-4.61,2l-2-4.17,13.16-9.48h5.49V54.43h6.12v6.48h-21.1Z" transform="translate(-4.32 -10.15)"/><path class="cls-1" d="M258.87,54.94a36.64,36.64,0,0,1-8.05,11,42.25,42.25,0,0,1-8.29,6,37.32,37.32,0,0,1-8.74,3.67l-4.25-4.75a27.16,27.16,0,0,0,6.78-2.59A41,41,0,0,0,242.89,64a25.1,25.1,0,0,0,4.94-5.22,24,24,0,0,0,2.92-5.65,14.53,14.53,0,0,1-7.43,2.23,14.77,14.77,0,0,1-5.92-1.19,14.52,14.52,0,0,1-4.76-3.28A14.74,14.74,0,0,1,229.5,46a17.78,17.78,0,0,1,.15-12.81,15.44,15.44,0,0,1,3.5-5.26,16.36,16.36,0,0,1,5.33-3.46,17.7,17.7,0,0,1,6.72-1.26,17,17,0,0,1,6.71,1.3,14.33,14.33,0,0,1,5.19,3.74,17.56,17.56,0,0,1,3.36,5.94,24.49,24.49,0,0,1,1.19,7.89A30.25,30.25,0,0,1,258.87,54.94Zm-8.06-22.65a7.31,7.31,0,0,0-11.66-.18A12,12,0,0,0,237,39.53a10.5,10.5,0,0,0,2.16,7A7.3,7.3,0,0,0,245,49.1a9,9,0,0,0,3.74-.75,15.1,15.1,0,0,0,3.53-2.41c.24-1.06.42-2,.54-2.78a18.13,18.13,0,0,0,.18-2.7C253,37,252.28,34.28,250.81,32.29Z" transform="translate(-4.32 -10.15)"/><path class="cls-1" d="M35.46,144q-4.93,3.36-14.51,3.35H6.48V97.49H19.63c1.86,0,3.44,0,4.74.11a25.35,25.35,0,0,1,3.41.39,14.28,14.28,0,0,1,2.62.76,14.83,14.83,0,0,1,2.3,1.19q5.61,3.6,5.6,9.79a10.77,10.77,0,0,1-2.17,6.87,12.17,12.17,0,0,1-6.32,4A16.89,16.89,0,0,1,35,122.76a12.24,12.24,0,0,1,3.24,3.06,11.38,11.38,0,0,1,1.69,3.6,15,15,0,0,1,.5,3.78Q40.39,140.61,35.46,144Zm-6.91-36.73a5.78,5.78,0,0,0-2.9-2.33,9.3,9.3,0,0,0-1.83-.43,22.86,22.86,0,0,0-2.83-.14H14.62v13.53h7a15.22,15.22,0,0,0,3.58-.32A5.45,5.45,0,0,0,27.73,116a6.34,6.34,0,0,0,1.54-2.58,8.69,8.69,0,0,0,.39-2.36A6.8,6.8,0,0,0,28.55,107.23ZM30,127.73a5.74,5.74,0,0,0-3.37-2.59,7.63,7.63,0,0,0-1.87-.36c-.62,0-1.52-.08-2.72-.08H14.76v15.77h7.46q4.73,0,6.88-2.3a8.14,8.14,0,0,0,2.15-5.76A8.47,8.47,0,0,0,30,127.73Z" transform="translate(-4.32 -10.15)"/><path class="cls-1" d="M51.19,108.36H75.67l-1.15,6.48H59.25v8.86H72v6.48H59.33v10.29H76.25v6.84H51.19Z" transform="translate(-4.32 -10.15)"/><path class="cls-1" d="M111.82,141.23a12.7,12.7,0,0,1-4.09,4,18,18,0,0,1-5.6,2.23,27.91,27.91,0,0,1-6.1.69,31.75,31.75,0,0,1-14.37-3.46l3-6.19a31.46,31.46,0,0,0,5.83,2.27,23.3,23.3,0,0,0,6,.75,20.33,20.33,0,0,0,2.56-.18,9,9,0,0,0,2.59-.72,5.4,5.4,0,0,0,2-1.51,4.11,4.11,0,0,0-.69-5.58,12.56,12.56,0,0,0-4.71-2.09L93,130.1a15.57,15.57,0,0,1-7-3.74,9.47,9.47,0,0,1-2.81-7.2,10.36,10.36,0,0,1,1.12-4.79,11.3,11.3,0,0,1,3.12-3.78,15.45,15.45,0,0,1,4.78-2.48,19.86,19.86,0,0,1,6.15-.9,30.42,30.42,0,0,1,7.8,1,20.73,20.73,0,0,1,6.59,2.92L109,116.86a20.69,20.69,0,0,0-10.3-3A8.45,8.45,0,0,0,94,115a3.68,3.68,0,0,0-1.72,3.24,3.43,3.43,0,0,0,1.11,2.67,9.78,9.78,0,0,0,4.11,1.73l5.15,1.29a28.92,28.92,0,0,1,4.18,1.44,12.74,12.74,0,0,1,3.44,2.2,9.83,9.83,0,0,1,2.32,3.2,10.48,10.48,0,0,1,.86,4.39A11.17,11.17,0,0,1,111.82,141.23Z" transform="translate(-4.32 -10.15)"/><path class="cls-1" d="M153.47,137.59a13.86,13.86,0,0,1-.58,2.77,7.58,7.58,0,0,1-1,2.09,11.65,11.65,0,0,1-1.59,1.77A14.29,14.29,0,0,1,145.6,147a20.45,20.45,0,0,1-7.18,1.08,21.08,21.08,0,0,1-8.81-1.58,11.9,11.9,0,0,1-5.05-4.11,10.6,10.6,0,0,1-1.37-3.45,25.7,25.7,0,0,1-.36-4.83v-25.7h8.28v24.48a32.83,32.83,0,0,0,.14,3.31,7.09,7.09,0,0,0,.51,2.09c1.09,2.11,3.27,3.17,6.51,3.17q4,0,5.59-2a10.14,10.14,0,0,0,.65-1,4.79,4.79,0,0,0,.46-1.22,12.51,12.51,0,0,0,.29-1.69,22.89,22.89,0,0,0,.11-2.41v-24.7h8.28v25.42A34.39,34.39,0,0,1,153.47,137.59Z" transform="translate(-4.32 -10.15)"/><path class="cls-1" d="M182.37,148a24.2,24.2,0,0,1-7.45-1.08,14.8,14.8,0,0,1-5.84-3.53q-5.79-5.61-5.79-14.76a22.82,22.82,0,0,1,3.22-12.38,17.3,17.3,0,0,1,6.7-6.37,19.31,19.31,0,0,1,9.38-2.27,22.35,22.35,0,0,1,6.08.83,13.89,13.89,0,0,1,4.86,2.26l-3.81,5.26a13.18,13.18,0,0,0-7-2.09,9.78,9.78,0,0,0-4.68,1.16,10.26,10.26,0,0,0-3.52,3q-2.24,3.11-2.24,9.45a31.71,31.71,0,0,0,.54,6.61,9.76,9.76,0,0,0,2.06,4.22,10.13,10.13,0,0,0,8.13,3.54,13.5,13.5,0,0,0,3.89-.54,14.42,14.42,0,0,0,3.67-1.76l3.82,4.79Q189.65,148,182.37,148Z" transform="translate(-4.32 -10.15)"/><path class="cls-1" d="M223.92,130H210.53v17.35h-8.14V108.36h8.14v15.12h13.39V108.36h8.28v39h-8.28Z" transform="translate(-4.32 -10.15)"/><path class="cls-1" d="M245.09,108.36h24.48l-1.16,6.48H253.15v8.86h12.74v6.48H253.22v10.29h16.92v6.84h-25Z" transform="translate(-4.32 -10.15)"/><path class="cls-1" d="M296.38,141.05c-1.54-2.35-2.71-4.12-3.5-5.29a32,32,0,0,0-2-2.7,8.24,8.24,0,0,0-1.59-1.37,3.92,3.92,0,0,0-2.24-.58v16.2h-7.92V108.36h13.11a30.12,30.12,0,0,1,6.58.61,11.09,11.09,0,0,1,4.58,2.13,10.79,10.79,0,0,1,4,8.64,10.39,10.39,0,0,1-9.61,10.87,6.63,6.63,0,0,1,1.73,1.87c.63.82,1.41,1.85,2.35,3.1s1.87,2.54,2.78,3.88l5.34,7.85h-9.75ZM298.29,117a4.57,4.57,0,0,0-1.88-1.64,7.72,7.72,0,0,0-2.61-.69,27.55,27.55,0,0,0-2.83-.15h-3.91v10.87h3.55c1,0,2,0,3-.11a7.66,7.66,0,0,0,2.72-.66,4.49,4.49,0,0,0,1.92-1.64,5.54,5.54,0,0,0,.72-3.06A5.24,5.24,0,0,0,298.29,117Z" transform="translate(-4.32 -10.15)"/><path class="cls-1" d="M335.19,141.05c-1.54-2.35-2.71-4.12-3.51-5.29a30.21,30.21,0,0,0-2-2.7,8.24,8.24,0,0,0-1.59-1.37,3.94,3.94,0,0,0-2.24-.58v16.2H318V108.36h13.1a30.22,30.22,0,0,1,6.59.61,11,11,0,0,1,4.57,2.13,10.76,10.76,0,0,1,4,8.64,10.39,10.39,0,0,1-9.61,10.87,6.64,6.64,0,0,1,1.74,1.87l2.35,3.1c.94,1.24,1.86,2.54,2.78,3.88l5.34,7.85h-9.75ZM337.1,117a4.59,4.59,0,0,0-1.89-1.64,7.6,7.6,0,0,0-2.61-.69,27.21,27.21,0,0,0-2.82-.15h-3.91v10.87h3.55c1,0,2,0,3-.11a7.6,7.6,0,0,0,2.71-.66,4.52,4.52,0,0,0,1.93-1.64,5.54,5.54,0,0,0,.72-3.06A5.24,5.24,0,0,0,337.1,117Z" transform="translate(-4.32 -10.15)"/><path class="cls-1" d="M356.76,108.36h24.48l-1.16,6.48H364.82v8.86h12.74v6.48H364.89v10.29h16.92v6.84H356.76Z" transform="translate(-4.32 -10.15)"/><path class="cls-1" d="M407.33,147.74a22.06,22.06,0,0,1-8.44-1.44,17.67,17.67,0,0,1-9.81-10.4,24.2,24.2,0,0,1-1.15-7.88,23.18,23.18,0,0,1,1.94-9.94,17.79,17.79,0,0,1,5.82-6.91,19,19,0,0,1,11.49-3.39,22,22,0,0,1,13.51,4.32l-4.16,5a20.61,20.61,0,0,0-4.31-2.23,14,14,0,0,0-4.88-.79,10.54,10.54,0,0,0-5.42,1.22,8.54,8.54,0,0,0-3.16,3.24,13.28,13.28,0,0,0-1.47,4.61,39.28,39.28,0,0,0-.36,5.4,26.89,26.89,0,0,0,.5,5.33,11.38,11.38,0,0,0,1.77,4.25,8.88,8.88,0,0,0,3.31,2.84,13.21,13.21,0,0,0,8,.72,18.87,18.87,0,0,0,2.37-.76v-8.85H406l-1.15-6.48h16.34v18.78A29.12,29.12,0,0,1,407.33,147.74Z" transform="translate(-4.32 -10.15)"/><path class="cls-1" d="M433.51,108.36h8.28v39h-8.28Z" transform="translate(-4.32 -10.15)"/><path class="cls-1" d="M481,141.23a12.7,12.7,0,0,1-4.09,4,18,18,0,0,1-5.6,2.23,27.91,27.91,0,0,1-6.1.69,31.75,31.75,0,0,1-14.37-3.46l2.95-6.19a31.46,31.46,0,0,0,5.83,2.27,23.35,23.35,0,0,0,6,.75,20.33,20.33,0,0,0,2.56-.18,9,9,0,0,0,2.59-.72,5.4,5.4,0,0,0,2-1.51,3.8,3.8,0,0,0,.79-2.48,3.85,3.85,0,0,0-1.48-3.1,12.56,12.56,0,0,0-4.71-2.09l-5.19-1.37a15.57,15.57,0,0,1-7-3.74,9.47,9.47,0,0,1-2.81-7.2,10.36,10.36,0,0,1,1.12-4.79,11.3,11.3,0,0,1,3.12-3.78,15.57,15.57,0,0,1,4.78-2.48,19.86,19.86,0,0,1,6.15-.9,30.42,30.42,0,0,1,7.8,1,20.63,20.63,0,0,1,6.59,2.92l-3.82,5.69a20.69,20.69,0,0,0-10.3-3,8.45,8.45,0,0,0-4.72,1.15,3.68,3.68,0,0,0-1.72,3.24,3.43,3.43,0,0,0,1.11,2.67,9.78,9.78,0,0,0,4.11,1.73l5.15,1.29a29.48,29.48,0,0,1,4.19,1.44,12.68,12.68,0,0,1,3.43,2.2,9.83,9.83,0,0,1,2.32,3.2,10.48,10.48,0,0,1,.86,4.39A11.17,11.17,0,0,1,481,141.23Z" transform="translate(-4.32 -10.15)"/><path class="cls-1" d="M505.87,114.84v32.47h-8.14V114.84H487v-6.48h30.82l-1.37,6.48Z" transform="translate(-4.32 -10.15)"/><path class="cls-1" d="M540.46,141.05c-1.54-2.35-2.71-4.12-3.51-5.29a30.21,30.21,0,0,0-2-2.7,8.24,8.24,0,0,0-1.59-1.37,3.94,3.94,0,0,0-2.24-.58v16.2h-7.92V108.36h13.1a30.22,30.22,0,0,1,6.59.61,11,11,0,0,1,4.57,2.13,10.76,10.76,0,0,1,4,8.64,10.39,10.39,0,0,1-9.61,10.87,6.64,6.64,0,0,1,1.74,1.87l2.35,3.1c.94,1.24,1.86,2.54,2.78,3.88l5.34,7.85h-9.75ZM542.37,117a4.59,4.59,0,0,0-1.89-1.64,7.61,7.61,0,0,0-2.6-.69,27.55,27.55,0,0,0-2.83-.15h-3.91v10.87h3.55c1,0,2,0,3-.11a7.71,7.71,0,0,0,2.72-.66,4.55,4.55,0,0,0,1.92-1.64,5.54,5.54,0,0,0,.72-3.06A5.24,5.24,0,0,0,542.37,117Z" transform="translate(-4.32 -10.15)"/><path class="cls-1" d="M562,108.36h8.28v39H562Z" transform="translate(-4.32 -10.15)"/><path class="cls-1" d="M583.34,108.36h24.48l-1.15,6.48H591.4v8.86h12.75v6.48H591.47v10.29h16.92v6.84h-25Z" transform="translate(-4.32 -10.15)"/><path class="cls-1" d="M634.63,141.05c-1.54-2.35-2.71-4.12-3.5-5.29a32,32,0,0,0-2-2.7,8.24,8.24,0,0,0-1.59-1.37,3.92,3.92,0,0,0-2.24-.58v16.2h-7.92V108.36H630.5a30.12,30.12,0,0,1,6.58.61,11.09,11.09,0,0,1,4.58,2.13,10.79,10.79,0,0,1,4,8.64,10.39,10.39,0,0,1-9.61,10.87,6.63,6.63,0,0,1,1.73,1.87c.63.82,1.41,1.85,2.35,3.1s1.87,2.54,2.78,3.88l5.34,7.85h-9.74ZM636.54,117a4.51,4.51,0,0,0-1.88-1.64,7.72,7.72,0,0,0-2.61-.69,27.55,27.55,0,0,0-2.83-.15h-3.91v10.87h3.55c1,0,2,0,3-.11a7.66,7.66,0,0,0,2.72-.66,4.44,4.44,0,0,0,1.92-1.64,5.54,5.54,0,0,0,.72-3.06A5.24,5.24,0,0,0,636.54,117Z" transform="translate(-4.32 -10.15)"/><path class="cls-1" d="M686.12,137.59a13.86,13.86,0,0,1-.58,2.77,7.87,7.87,0,0,1-1,2.09,11.65,11.65,0,0,1-1.59,1.77,14.29,14.29,0,0,1-4.65,2.73,20.45,20.45,0,0,1-7.18,1.08,21.08,21.08,0,0,1-8.81-1.58,11.9,11.9,0,0,1-5-4.11,10.6,10.6,0,0,1-1.37-3.45,25.7,25.7,0,0,1-.36-4.83v-25.7h8.28v24.48a32.83,32.83,0,0,0,.14,3.31,7.09,7.09,0,0,0,.51,2.09c1.09,2.11,3.27,3.17,6.51,3.17q4,0,5.59-2a10.14,10.14,0,0,0,.65-1,4.79,4.79,0,0,0,.46-1.22,12.51,12.51,0,0,0,.29-1.69,22.89,22.89,0,0,0,.11-2.41v-24.7h8.28v25.42A34.39,34.39,0,0,1,686.12,137.59Z" transform="translate(-4.32 -10.15)"/><path class="cls-1" d="M711,129.31c-.53-1-1.08-2-1.66-3.27l-1.62-3.5c-.5-1.1-.92-2-1.25-2.8l-.51-1.16.07,1.3q.08,1.23.15,3.06c0,1.22.09,2.5.14,3.82s.07,2.48.07,3.49l.29,17.06h-7.85V108.36h9L717.47,126c.48.91,1,1.93,1.51,3.06s1,2.2,1.44,3.2l1.51,3.53-.14-1.15c0-.77-.12-1.72-.21-2.84s-.19-2.32-.26-3.57-.11-2.35-.11-3.31l-.14-16.56h7.7v39h-8.42Z" transform="translate(-4.32 -10.15)"/><path class="cls-1" d="M758.54,147.74a22.09,22.09,0,0,1-8.44-1.44,17.75,17.75,0,0,1-9.81-10.4,24.2,24.2,0,0,1-1.15-7.88,23.18,23.18,0,0,1,1.94-9.94,17.79,17.79,0,0,1,5.82-6.91,19.05,19.05,0,0,1,11.5-3.39,22,22,0,0,1,13.5,4.32l-4.16,5a20.61,20.61,0,0,0-4.31-2.23,14,14,0,0,0-4.88-.79,10.54,10.54,0,0,0-5.42,1.22,8.61,8.61,0,0,0-3.16,3.24,13.28,13.28,0,0,0-1.47,4.61,39.28,39.28,0,0,0-.36,5.4,26.14,26.14,0,0,0,.51,5.33,11.2,11.2,0,0,0,1.76,4.25,8.88,8.88,0,0,0,3.31,2.84,13.21,13.21,0,0,0,8,.72,19,19,0,0,0,2.38-.76v-8.85h-6.92l-1.15-6.48h16.35v18.78A29.19,29.19,0,0,1,758.54,147.74Z" transform="translate(-4.32 -10.15)"/></g></g></svg>