<svg xmlns="http://www.w3.org/2000/svg" viewBox="0 0 490.6 291.6"><g id="Ebene_2" data-name="Ebene 2"><g id="Ebene_1-2" data-name="Ebene 1"><path d="M235.8,221.07V180.12a6.84,6.84,0,0,1,6.83-6.82h4.55a6.84,6.84,0,0,1,6.82,6.82v40.95a6.85,6.85,0,0,1-6.83,6.83h-4.55A6.84,6.84,0,0,1,235.8,221.07ZM463.3,291.6H226.7a27.31,27.31,0,0,1-27.3-27.3V136.9a27.31,27.31,0,0,1,27.3-27.3H463.3a27.31,27.31,0,0,1,27.3,27.3V264.3A27.31,27.31,0,0,1,463.3,291.6Zm0-18.2a9.13,9.13,0,0,0,9.1-9.1V136.9a9.13,9.13,0,0,0-9.1-9.1H226.7a9.13,9.13,0,0,0-9.1,9.1V264.3a9.13,9.13,0,0,0,9.1,9.1Z"/><path d="M111.47,254.8H70.52A6.84,6.84,0,0,1,63.7,248v-4.56a6.84,6.84,0,0,1,6.82-6.82h41a6.84,6.84,0,0,1,6.83,6.82V248A6.84,6.84,0,0,1,111.47,254.8ZM182,27.3V263.9a27.31,27.31,0,0,1-27.3,27.3H27.3A27.31,27.31,0,0,1,0,263.9V27.3A27.31,27.31,0,0,1,27.3,0H154.7A27.31,27.31,0,0,1,182,27.3Zm-18.2,0a9.13,9.13,0,0,0-9.1-9.1H27.3a9.13,9.13,0,0,0-9.1,9.1V263.9a9.13,9.13,0,0,0,9.1,9.1H154.7a9.13,9.13,0,0,0,9.1-9.1Z"/><path d="M383.78,46l-2.95-1.54a4,4,0,0,0-5.38,1.7l-17,32.61A82.44,82.44,0,0,0,205,41.13a4,4,0,0,0,1.61,5.53l3,1.54a4,4,0,0,0,5.26-1.49A71.14,71.14,0,0,1,347.26,83.2L313.57,65.64a4,4,0,0,0-5.38,1.7l-1.53,3a4,4,0,0,0,1.69,5.38l47.17,24.57a4,4,0,0,0,5.38-1.69l24.57-47.17A4,4,0,0,0,383.78,46Z"/></g></g></svg>